<svg xmlns="http://www.w3.org/2000/svg" xmlns:xlink="http://www.w3.org/1999/xlink" width="500" zoomAndPan="magnify" viewBox="0 0 375 374.999991" height="500" preserveAspectRatio="xMidYMid meet" version="1.0"><defs><g/><clipPath id="9bead73233"><path d="M 109.398438 103.035156 L 178 103.035156 L 178 208.035156 L 109.398438 208.035156 Z M 109.398438 103.035156 " clip-rule="nonzero"/></clipPath><clipPath id="55e11ce0dd"><path d="M 167 103.035156 L 237 103.035156 L 237 208.035156 L 167 208.035156 Z M 167 103.035156 " clip-rule="nonzero"/></clipPath><clipPath id="3884e33c6f"><path d="M 138 103.035156 L 208 103.035156 L 208 208.035156 L 138 208.035156 Z M 138 103.035156 " clip-rule="nonzero"/></clipPath><clipPath id="de4efc7f78"><path d="M 197 103.035156 L 265.398438 103.035156 L 265.398438 208.035156 L 197 208.035156 Z M 197 103.035156 " clip-rule="nonzero"/></clipPath></defs><g clip-path="url(#9bead73233)"><path fill="#ffffff" d="M 149.871094 103.027344 L 109.414062 103.027344 L 137.398438 208.082031 L 177.851562 208.082031 L 149.871094 103.027344 " fill-opacity="1" fill-rule="nonzero"/></g><g clip-path="url(#55e11ce0dd)"><path fill="#ffffff" d="M 208.324219 103.027344 L 167.867188 103.027344 L 195.851562 208.082031 L 236.308594 208.082031 L 208.324219 103.027344 " fill-opacity="1" fill-rule="nonzero"/></g><g clip-path="url(#3884e33c6f)"><path fill="#1a237e" d="M 179.136719 208.082031 L 138.679688 208.082031 L 166.664062 103.027344 L 207.117188 103.027344 L 179.136719 208.082031 " fill-opacity="1" fill-rule="nonzero"/></g><g clip-path="url(#de4efc7f78)"><path fill="#1a237e" d="M 237.589844 208.082031 L 197.136719 208.082031 L 225.117188 103.027344 L 265.574219 103.027344 L 237.589844 208.082031 " fill-opacity="1" fill-rule="nonzero"/></g><g fill="#f1f0f0" fill-opacity="1"><g transform="translate(109.309536, 246.378274)"><g><path d="M 8.523438 0.425781 L 9.238281 0.425781 L 12.945312 -8.695312 L 16.679688 0.34375 L 17.421875 0.34375 L 25.746094 -20.386719 L 21.15625 -20.386719 L 17.050781 -9.980469 L 13.058594 -20.1875 L 12.859375 -20.1875 L 8.867188 -9.980469 L 4.761719 -20.386719 L 0.171875 -20.386719 Z M 8.523438 0.425781 "/></g></g></g><g fill="#f1f0f0" fill-opacity="1"><g transform="translate(139.152754, 246.378274)"><g><path d="M 12.828125 0 L 12.828125 -4.078125 L 6.359375 -4.078125 L 6.359375 -8.152344 L 11.71875 -8.152344 L 11.71875 -12.230469 L 6.359375 -12.230469 L 6.359375 -16.308594 L 12.488281 -16.308594 L 12.488281 -20.386719 L 2.28125 -20.386719 L 2.28125 0 Z M 12.828125 0 "/></g></g></g><g fill="#f1f0f0" fill-opacity="1"><g transform="translate(157.424257, 246.378274)"><g><path d="M 2.28125 0 L 10.347656 0 C 13.65625 0 16.367188 -2.707031 16.367188 -6.128906 C 16.367188 -7.726562 15.59375 -9.292969 14.253906 -10.207031 C 15.539062 -11.089844 16.082031 -12.6875 16.136719 -14.226562 C 16.222656 -17.820312 13.96875 -20.414062 10.347656 -20.414062 L 2.28125 -20.414062 Z M 6.386719 -16.335938 L 10.007812 -16.335938 C 11.175781 -16.335938 11.890625 -15.425781 11.890625 -14.285156 C 11.890625 -13.171875 11.175781 -12.230469 10.007812 -12.230469 L 6.386719 -12.230469 Z M 6.386719 -8.152344 L 10.007812 -8.152344 C 11.175781 -8.152344 12.058594 -7.269531 12.058594 -6.128906 C 12.058594 -4.988281 11.175781 -4.078125 10.007812 -4.078125 L 6.386719 -4.078125 Z M 6.386719 -8.152344 "/></g></g></g><g fill="#f1f0f0" fill-opacity="1"><g transform="translate(179.030461, 246.378274)"><g><path d="M 11.632812 -11.746094 L 3.59375 -20.699219 L 2.28125 -20.699219 L 2.28125 0 L 6.414062 0 L 6.414062 -11.375 L 11.632812 -5.902344 L 16.851562 -11.375 L 16.820312 0 L 20.957031 0 L 20.957031 -20.699219 L 19.671875 -20.699219 Z M 11.632812 -11.746094 "/></g></g></g><g fill="#f1f0f0" fill-opacity="1"><g transform="translate(206.19452, 246.378274)"><g><path d="M 0.457031 0 L 5.074219 0 L 5.875 -2.195312 L 12.628906 -2.195312 L 13.457031 0 L 18.046875 0 L 9.464844 -21.125 L 9.039062 -21.125 Z M 7.355469 -6.015625 L 9.265625 -11.320312 L 11.121094 -6.015625 Z M 7.355469 -6.015625 "/></g></g></g><g fill="#f1f0f0" fill-opacity="1"><g transform="translate(228.712792, 246.378274)"><g><path d="M 12.429688 0 L 17.050781 0 L 12.316406 -8.410156 C 18.304688 -10.148438 17.589844 -20.386719 10.320312 -20.386719 L 2.28125 -20.386719 L 2.28125 0 L 6.359375 0 L 6.359375 -7.785156 L 8.324219 -7.785156 Z M 6.359375 -11.746094 L 6.359375 -16.308594 L 9.949219 -16.308594 C 12.714844 -16.308594 12.714844 -11.746094 9.949219 -11.746094 Z M 6.359375 -11.746094 "/></g></g></g><g fill="#f1f0f0" fill-opacity="1"><g transform="translate(250.090989, 246.378274)"><g><path d="M 9.722656 0 L 9.722656 -16.308594 L 14.796875 -16.308594 L 14.796875 -20.355469 L 0.570312 -20.355469 L 0.570312 -16.308594 L 5.644531 -16.308594 L 5.644531 0 Z M 9.722656 0 "/></g></g></g></svg>